<svg width="139" height="29" viewBox="0 0 139 29" fill="none" xmlns="http://www.w3.org/2000/svg">
<g clip-path="url(#clip0_12732_496)">
<path d="M81.2293 16.8206H76.6123V18.9568H81.2293V16.8206Z" fill="#3AAA35"/>
<path d="M60.1297 13.3166H62.6056V22.3685H65.0503V13.3166H67.534V11.1957H60.1297V13.3166ZM56.7273 15.3682H52.3595V11.1957H49.9147V22.3685H52.3595V17.5275H56.7273V22.3685H59.1721V11.1957H56.7273V15.3682ZM39.5596 11.1957H37.1071V20.2554H33.0429V11.1957H30.5981V22.3685H38.602V24.8198H40.8832V20.2554H39.5596V11.1957ZM114.685 22.3685H121.1V20.2554H117.13V17.5813H120.937V15.4528H117.13V13.3166H121.1V11.1957H114.685V22.3685ZM111.337 16.3518C111.663 16.1141 111.925 15.8017 112.102 15.4416C112.278 15.0815 112.363 14.6845 112.349 14.2848C112.361 13.8353 112.27 13.3889 112.083 12.979C111.895 12.5692 111.616 12.2065 111.267 11.9181C110.442 11.3855 109.463 11.1345 108.48 11.2034H105.599V22.3685H109.453C110.5 22.4333 111.534 22.1069 112.349 21.4541C112.669 21.1598 112.922 20.8025 113.092 20.4053C113.262 20.0082 113.346 19.5801 113.338 19.1488C113.352 18.7539 113.285 18.3601 113.141 17.9916C112.996 17.623 112.777 17.2873 112.497 17.005C112.172 16.6968 111.773 16.4748 111.337 16.3595V16.3518ZM108.044 13.2167H108.519C108.895 13.2012 109.268 13.3005 109.585 13.501C109.731 13.6092 109.847 13.7515 109.923 13.9152C110 14.0789 110.033 14.2587 110.021 14.4385C110.032 14.6945 109.967 14.9482 109.834 15.1685C109.667 15.4046 109.418 15.5716 109.134 15.6372C108.928 15.691 108.716 15.7169 108.503 15.714H108.044V13.2167ZM110.691 19.5484C110.591 19.7668 110.425 19.9493 110.216 20.0709C109.783 20.2788 109.303 20.3741 108.822 20.3476H108.044V17.6735H108.69C109.169 17.6403 109.649 17.7084 110.099 17.8733C110.356 17.976 110.566 18.1671 110.691 18.4112C110.779 18.5882 110.824 18.7827 110.823 18.9798C110.827 19.1887 110.784 19.3958 110.699 19.5868L110.691 19.5484ZM41.9031 22.3685H48.3186V20.2554H44.379V17.5813H48.1863V15.4528H44.379V13.3166H48.3498V11.1957H41.9031V22.3685ZM131.58 11.1957V13.3166H134.064V22.3685H136.508V13.3166H138.992V11.1957H131.58ZM74.8527 12.0641C74.466 11.7216 74.0013 11.4764 73.4979 11.3494C72.9542 11.2273 72.397 11.1731 71.8396 11.1881H68.515V22.3685H70.9676V18.342H72.1744C72.7009 18.3746 73.2286 18.3022 73.7262 18.1293C74.2238 17.9563 74.681 17.6864 75.0707 17.3354C75.7059 16.6421 76.0461 15.734 76.0205 14.7996C76.0319 14.2875 75.9329 13.7788 75.7303 13.3073C75.5276 12.8357 75.2258 12.412 74.8449 12.0641H74.8527ZM72.9763 15.9061C72.5863 16.1548 72.1226 16.2658 71.6605 16.2212H70.9364V13.3166H71.5281C72.0271 13.2748 72.527 13.3847 72.9607 13.6316C73.1369 13.7615 73.279 13.9312 73.3751 14.1263C73.4713 14.3215 73.5187 14.5365 73.5135 14.7535C73.5165 14.973 73.4698 15.1903 73.3768 15.3897C73.2839 15.5891 73.1471 15.7655 72.9763 15.9061ZM128.022 10.9499C126.496 10.8814 125.004 11.4118 123.872 12.4252C123.279 12.9882 122.811 13.6671 122.499 14.4187C122.186 15.1702 122.036 15.9778 122.058 16.7898C122.043 17.5634 122.187 18.3319 122.482 19.0488C122.777 19.7658 123.216 20.4162 123.772 20.9608C124.329 21.5053 124.992 21.9327 125.721 22.2169C126.451 22.5012 127.231 22.6364 128.014 22.6144C128.986 22.6278 129.947 22.4034 130.809 21.9612L130.887 21.9228V18.9567L130.622 19.2641C130.322 19.6206 129.946 19.9074 129.521 20.1039C129.096 20.3005 128.632 20.4021 128.162 20.4014C127.254 20.4061 126.375 20.0806 125.694 19.487C125.326 19.1484 125.035 18.736 124.842 18.2774C124.648 17.8188 124.557 17.3247 124.573 16.8282C124.566 15.891 124.907 14.9837 125.53 14.2771C125.85 13.9243 126.243 13.6436 126.682 13.454C127.121 13.2644 127.597 13.1703 128.076 13.1783C128.561 13.1834 129.039 13.291 129.479 13.4938C129.918 13.6966 130.308 13.9899 130.622 14.3539L130.887 14.6536V11.6798L130.809 11.6414C129.957 11.1839 129 10.9486 128.03 10.9575L128.022 10.9499ZM84.9275 18.2267V11.1957H82.4828V22.3685H84.3591L90.0506 15.3068V22.3685H92.4953V11.1957H90.5878L84.9275 18.2267ZM101.215 15.3682H96.8476V11.1957H94.4028V22.3685H96.8476V17.5275H101.215V22.3685H103.66V11.1957H101.215V15.3682Z" fill="#3AAA35"/>
<path d="M35.9236 4.18786C35.2831 3.66121 34.4676 3.38745 33.6346 3.41945H32.5991V1.76736H35.9626V0H30.5981V8.95204H33.6424C34.0958 8.95967 34.5476 8.89745 34.9816 8.76762C35.507 8.60779 35.9642 8.28088 36.2818 7.83784C36.6137 7.36081 36.7903 6.79517 36.7879 6.21648C36.7979 5.83647 36.7253 5.45876 36.5748 5.10881C36.4244 4.75886 36.1997 4.44482 35.9158 4.18786H35.9236ZM34.4833 6.86963C34.1337 7.13058 33.697 7.25136 33.2609 7.20774H32.5991V5.20217H33.292C33.7171 5.16042 34.1419 5.28453 34.4755 5.54796C34.5656 5.6377 34.6362 5.74462 34.6831 5.86221C34.7299 5.97979 34.752 6.10556 34.748 6.23185C34.7524 6.35109 34.7318 6.46994 34.6876 6.581C34.6434 6.69205 34.5765 6.79292 34.491 6.87732L34.4833 6.86963ZM59.3044 4.16481L63.1428 0H60.5891L57.6149 3.42713V0H55.5828V8.95204H57.6149V5.1868L60.6669 8.98277H63.3141L59.3044 4.16481ZM40.673 0L36.8346 8.95204H39.0068L39.7854 7.13858H43.1177L43.8963 8.95204H46.053L42.308 0H40.673ZM40.4394 5.44806L41.4749 2.88924L42.4871 5.44806H40.4394ZM52.1181 3.33492H48.6768V0H46.6758V8.95204H48.6846V5.10996H52.087V8.95204H54.0879V0H52.0792L52.1181 3.33492Z" fill="#3AAA35"/>
<path d="M12.3481 0V6.5008L17.7126 0H12.3481Z" fill="#3AAA35"/>
<path d="M21.5354 0.899048L12.3481 12.0411V14.8151C12.3481 14.7382 12.3481 14.6614 12.3871 14.5845L12.5039 14.0927C12.7111 13.3852 13.0432 12.7193 13.4849 12.1256L13.7963 11.7568C14.1399 11.4066 14.5302 11.1041 14.9564 10.8577C15.1836 10.7417 15.4176 10.6391 15.6571 10.5503C16.1616 10.4002 16.6876 10.3327 17.2143 10.3506L17.7437 10.4197C18.161 10.5136 18.5641 10.6609 18.9427 10.8577C19.1559 10.9811 19.3612 11.1171 19.5578 11.265C20.1233 11.7325 20.5914 12.304 20.9359 12.9478L21.1461 13.3935C21.3087 13.8641 21.4311 14.3473 21.512 14.8381L21.5354 0.899048Z" fill="#3AAA35"/>
<path d="M16.965 11.3572C14.9563 11.3572 13.3213 13.3858 13.3213 15.8755C13.3213 18.3651 14.9563 20.4014 16.965 20.4014C18.9738 20.4014 20.6166 18.3728 20.6166 15.8755C20.6166 13.3781 18.9816 11.3572 16.965 11.3572ZM16.965 18.9414C15.7582 18.9414 14.7694 17.566 14.7694 15.8678C14.7694 14.1696 15.7505 12.7941 16.965 12.7941C18.1796 12.7941 19.1684 14.1696 19.1684 15.8678C19.1684 17.566 18.1796 18.9414 16.965 18.9414Z" fill="#3AAA35"/>
<path d="M12.5117 17.6736L12.3949 17.1818L12.356 16.9513V22.384H21.5432V17.0051C21.429 17.6409 21.2355 18.2604 20.9671 18.8493L20.7179 19.2719C20.3634 19.8158 19.9124 20.2922 19.3865 20.6781L18.9661 20.9394C18.5873 21.136 18.1843 21.2832 17.7671 21.3774C17.5098 21.4214 17.2496 21.447 16.9885 21.4542C16.6342 21.4447 16.2819 21.3984 15.9374 21.3159C15.6909 21.2434 15.4491 21.1562 15.2133 21.0546C14.6844 20.7787 14.2077 20.4148 13.8041 19.9789L13.4849 19.61C13.0485 19.0255 12.7192 18.3702 12.5117 17.6736Z" fill="#3AAA35"/>
<path d="M0 21.5157L9.18725 10.3737V7.56127C9.18725 7.63811 9.18725 7.71495 9.18725 7.79179L9.06268 8.28358C8.85437 8.99072 8.52236 9.65646 8.08167 10.2507L7.76245 10.6196C7.41423 10.9764 7.01564 11.2818 6.57901 11.5263C6.35245 11.6437 6.11838 11.7463 5.87828 11.8337C5.37406 11.9851 4.84781 12.0526 4.32112 12.0334L3.79169 11.9643C3.36631 11.8726 2.95523 11.7253 2.56932 11.5263C2.35346 11.4032 2.14545 11.2672 1.94645 11.119C1.38387 10.6507 0.918534 10.0792 0.57615 9.4362L0.365933 8.99052C0.203792 8.51976 0.0813971 8.03658 0 7.5459L0 21.5157Z" fill="#3AAA35"/>
<path d="M4.57051 11.0191C6.57925 11.0191 8.21427 8.99049 8.21427 6.50082C8.21427 4.01115 6.58704 1.97485 4.57051 1.97485C2.55399 1.97485 0.926758 4.00347 0.926758 6.50082C0.926758 8.99817 2.56178 11.0191 4.57051 11.0191ZM4.57051 3.43484C5.7851 3.43484 6.76611 4.81031 6.76611 6.5085C6.76611 8.2067 5.77731 9.58217 4.57051 9.58217C3.36371 9.58217 2.37492 8.2067 2.37492 6.5085C2.37492 4.81031 3.36371 3.43484 4.57051 3.43484Z" fill="#3AAA35"/>
<path d="M9.02375 4.71039L9.14832 5.20217C9.14832 5.27901 9.14832 5.35586 9.14832 5.42501V0H0V5.37891C0.113795 4.74297 0.307332 4.12348 0.57615 3.53471L0.825295 3.11208C1.18223 2.58123 1.63012 2.11578 2.14888 1.73662L2.56932 1.47536C2.94824 1.27907 3.35124 1.13186 3.76833 1.03736C4.02574 0.993979 4.28589 0.968303 4.54691 0.960519C4.90125 0.969712 5.25359 1.01608 5.59799 1.09883C5.8441 1.17255 6.08583 1.25977 6.32207 1.3601C6.84609 1.61787 7.32247 1.96075 7.73131 2.3744L8.05052 2.74324C8.49 3.33823 8.82189 4.00376 9.03154 4.71039H9.02375Z" fill="#3AAA35"/>
<path d="M9.17939 15.8755L3.82275 22.3686H9.17939V15.8755Z" fill="#3AAA35"/>
<path d="M18.9427 0L0.529297 22.3686H2.56139L21.0138 0H18.9427Z" fill="#3AAA35"/>
<path d="M11.4294 20.8318H9.05469V22.3686H11.4294V20.8318Z" fill="#3AAA35"/>
<path d="M22.4543 20.8318V22.3686C22.9721 22.4061 23.4542 22.643 23.7966 23.0283C24.1389 23.4136 24.3139 23.9164 24.2839 24.428C24.2849 24.9514 24.083 25.4555 23.7197 25.8369C23.3564 26.2183 22.8592 26.4483 22.3297 26.4796C21.3045 26.4208 20.2902 26.2402 19.3088 25.9417L9.9269 23.6365C4.76491 22.4224 0 23.8209 0 27.1481H1.55716C1.55716 25.9187 3.97855 25.0965 9.15611 26.3797L18.6859 28.6619C20.4532 29.195 22.3522 29.1136 24.0659 28.4314C24.7356 28.0746 25.2949 27.5454 25.6842 26.9C26.0735 26.2546 26.2784 25.5172 26.2771 24.7661C26.2926 24.257 26.2055 23.75 26.0207 23.2745C25.8359 22.799 25.5572 22.3645 25.2008 21.9963C24.8444 21.6281 24.4173 21.3335 23.9445 21.1296C23.4716 20.9257 22.9624 20.8166 22.4465 20.8087L22.4543 20.8318Z" fill="#3AAA35"/>
</g>
<defs>
<clipPath id="clip0_12732_496">
<rect width="139" height="29" fill="white"/>
</clipPath>
</defs>
</svg>
