<svg width="19" height="24" viewBox="0 0 19 24" fill="none" xmlns="http://www.w3.org/2000/svg">
<path d="M7.79698 16.8858C7.79698 15.8695 8.62084 15.0457 9.63712 15.0457C10.6534 15.0457 11.4773 15.8695 11.4773 16.8858C11.4773 17.9021 10.6534 18.726 9.63712 18.726C8.62084 18.726 7.79698 17.9021 7.79698 16.8858Z" fill="black"/>
<path fill-rule="evenodd" clip-rule="evenodd" d="M4.26594 10.2578L3.87896 6.77507C3.82935 6.32855 3.82935 5.87792 3.87896 5.4314L3.90689 5.18004C4.20314 2.51381 6.29919 0.404202 8.96345 0.0907595C9.411 0.0381062 9.86319 0.0381062 10.3107 0.0907595C12.975 0.404202 15.071 2.51381 15.3673 5.18004L15.3952 5.4314C15.4448 5.87792 15.4448 6.32855 15.3952 6.77507L15.0083 10.2578L15.8506 10.325C17.1788 10.4311 18.2634 11.4295 18.4787 12.7445C18.9278 15.4871 18.9278 18.2845 18.4787 21.0271C18.2634 22.3421 17.1788 23.3406 15.8506 23.4466L14.0152 23.5931C11.1011 23.8258 8.17319 23.8258 5.25916 23.5931L3.42376 23.4466C2.09552 23.3406 1.01093 22.3421 0.795613 21.0271C0.346531 18.2845 0.346531 15.4871 0.795613 12.7445C1.01093 11.4295 2.09551 10.4311 3.42376 10.325L4.26594 10.2578ZM9.17846 1.9183C9.48316 1.88245 9.79103 1.88245 10.0957 1.9183C11.9097 2.1317 13.3367 3.56799 13.5384 5.38325L13.5663 5.63461C13.6009 5.94607 13.6009 6.2604 13.5663 6.57186L13.1724 10.1177C10.818 9.96614 8.45624 9.96615 6.10184 10.1178L5.70785 6.57186C5.67325 6.2604 5.67325 5.94607 5.70785 5.63461L5.73578 5.38325C5.93748 3.56799 7.36453 2.1317 9.17846 1.9183ZM13.8687 12.0128C11.0522 11.788 8.22216 11.788 5.40559 12.0128L3.5702 12.1594C3.08572 12.198 2.69011 12.5622 2.61157 13.0419C2.19473 15.5876 2.19473 18.1841 2.61157 20.7298C2.69011 21.2094 3.08572 21.5736 3.5702 21.6123L5.40559 21.7588C8.22215 21.9837 11.0522 21.9837 13.8687 21.7588L15.7041 21.6123C16.1886 21.5736 16.5842 21.2094 16.6627 20.7298C17.0796 18.1841 17.0796 15.5876 16.6627 13.0419C16.5842 12.5622 16.1886 12.198 15.7041 12.1594L13.8687 12.0128Z" fill="black"/>
</svg>
