<svg xmlns="http://www.w3.org/2000/svg" width="2129.28" height="2132.156" viewBox="0 0 2129.28 2132.156">
  <defs>
    <style>
      .cls-1 {
        fill: #000000;
        fill-rule: evenodd;
      }
    </style>
  </defs>
  <path id="Заливка_цветом_1" data-name="Заливка цветом 1" class="cls-1" d="M1037,1c521.5-8.007,869.39,301.749,1018,668,97.14,239.393,99.56,546.37,4,790-121.97,310.97-365.96,537.08-701,635-75.7,22.13-155.15,26.71-245,39q-57-1.005-114-2c-137.656-18.92-236.98-34.22-343-79C319.024,1909.65,86.173,1641.35,13,1235c-16.842-93.53-19.994-225.82-3-323,12.833-73.387,27.134-142.977,51-206C179.518,393.035,396.121,179.772,709,61,776.131,35.516,850.744,21.885,930,9Zm204,1229v480h136V423H1197l-101,3C978.372,448.769,904.326,527.329,853,617c-112.642,196.8-39.593,437.45,97,547,22.454,18.01,47.956,42.83,78,52L756,1710H928q108.5-239.97,217-480h96Zm-4-698v584c-106.84.91-179.26-3.81-225-62-104.6-133.064-79.132-425.9,55-504C1105.9,527.347,1174.2,531.565,1237,532Z" transform="translate(0 -0.844)"/>
</svg>
