<svg width="19" height="23" viewBox="0 0 19 23" fill="none" xmlns="http://www.w3.org/2000/svg">
<path d="M11.2726 14.4707L6.07402 23H0.844355L7.16353 13.2255C6.5617 12.9765 5.95988 12.6133 5.35805 12.136C4.75623 11.6379 4.25816 10.9842 3.86386 10.1749C3.46956 9.34477 3.27241 8.32789 3.27241 7.12424C3.27241 5.06973 4.00913 3.50291 5.48257 2.42377C6.956 1.32388 9.02089 0.773935 11.6772 0.773935H18.8991V23H14.1987V14.4707H11.2726ZM11.864 4.63392C11.0546 4.63392 10.3594 4.72731 9.77836 4.91408C9.21804 5.10086 8.78224 5.40177 8.47095 5.81682C8.18041 6.23188 8.03514 6.78182 8.03514 7.46666C8.03514 8.44203 8.35681 9.22025 9.00014 9.80133C9.66422 10.3616 10.6603 10.6418 11.9885 10.6418H14.1987V4.63392H11.864Z" fill="black"/>
</svg>
